<svg width="93" height="35" viewBox="0 0 93 35" fill="none" xmlns="http://www.w3.org/2000/svg">
<g clip-path="url(#clip0_1547_2177)">
<path d="M3.94232 0.5C6.07505 0.5 7.88464 2.26538 7.88464 4.48846C7.88464 6.71154 6.07505 8.47692 3.94232 8.47692C1.80959 8.47692 0 6.71154 0 4.48846C0 2.26538 1.80959 0.5 3.94232 0.5ZM0.646282 13.9038C0.646282 12.0077 2.00347 10.4385 3.94232 10.4385C5.88117 10.4385 7.23836 12.0077 7.23836 13.9038V30.3154C7.23836 32.2769 5.88117 33.7808 3.94232 33.7808C2.00347 33.7808 0.646282 32.2115 0.646282 30.3154V13.9038Z" fill="black"/>
<path d="M68.1835 26.5885V29.9885C68.1835 31.2308 67.8603 32.2115 67.2787 32.9308C66.6324 33.65 65.7922 33.9769 64.6935 33.9769C63.6595 33.9769 62.8839 33.65 62.3669 32.9308C61.8499 32.2769 61.5914 31.2308 61.5914 29.7923V26.5885H50.2814C48.795 26.5885 47.6963 26.3269 46.9854 25.8692C46.2745 25.4115 45.8867 24.6923 45.8867 23.7115C45.8867 22.6654 46.4037 21.4231 47.3732 19.8538C47.4378 19.7231 47.5024 19.5923 47.5671 19.4615L57.0674 4.35769C57.8429 3.05 58.6831 2.2 59.5233 1.67692C60.3634 1.15384 61.3329 0.892303 62.4962 0.892303C64.3058 0.892303 65.6629 1.54615 66.697 2.85384C67.7311 4.16153 68.1835 5.9923 68.1835 8.34615V20.1154H68.5712H69.2821C70.5101 20.1154 71.4795 20.3769 72.1258 20.9654C72.8367 21.4885 73.1598 22.2731 73.1598 23.1885C73.1598 24.3 72.8367 25.15 72.0611 25.7385C71.3502 26.3269 70.2516 26.5885 68.8297 26.5885H68.1835ZM54.0299 20.1154H61.5267V7.82307L54.0299 20.1154Z" fill="black"/>
<path d="M84.6 8.08462H76.3922C74.5826 8.08462 73.2901 7.82308 72.5792 7.36539C71.8682 6.84231 71.4805 6.0577 71.4805 4.88077C71.4805 3.70385 71.8682 2.85385 72.5792 2.26539C73.3547 1.67693 74.3887 1.35001 75.8106 1.35001H87.7668C89.5117 1.35001 90.8689 1.67693 91.7091 2.33078C92.6139 2.98462 93.0017 4.03078 93.0017 5.33847C93.0017 5.66539 92.937 6.12308 92.8078 6.58077C92.6785 7.10385 92.4846 7.56154 92.2908 8.08462L81.7564 30.9692C81.2393 32.1462 80.6577 32.9962 80.0114 33.5846C79.3651 34.1731 78.7188 34.4346 77.9433 34.4346C76.8446 34.4346 76.0044 34.1077 75.2935 33.3885C74.5826 32.6692 74.1949 31.8192 74.1949 30.8385C74.1949 30.4462 74.2595 29.9885 74.4534 29.5308C74.6473 29.0731 74.8411 28.4192 75.2289 27.6346L84.6 8.08462Z" fill="black"/>
<path d="M41.6853 22.9923C38.1307 27.3731 28.695 33.5193 28.6304 33.4539C28.6304 33.4539 27.9195 33.0616 26.8208 32.3423C26.1745 31.8846 25.3343 31.2962 24.4295 30.7077C23.4601 29.9885 22.2968 29.1385 21.2628 28.2885C19.3239 26.7846 17.4497 25.15 16.0925 23.6462C15.8986 23.45 15.7047 23.2539 15.5755 23.0577C15.317 22.7962 15.1231 22.4693 14.9292 22.2077C13.7013 20.5731 12.7318 19.0039 12.0855 17.4346C7.10918 6.25387 16.0279 -1.65766 23.5247 1.15387C24.7527 1.61157 25.916 2.39618 27.0147 3.44234C27.5963 4.0308 28.1133 4.68464 28.6304 5.40388C29.2767 4.48849 29.9229 3.70388 30.6338 3.05003C33.6067 0.36926 37.2906 -0.0230483 40.3281 1.28464C41.1682 1.61157 41.9438 2.13464 42.7193 2.72311C43.818 3.63849 44.7228 4.75003 45.4337 6.12311C47.5018 10.177 47.1787 16.2577 41.6853 22.9923Z" fill="black"/>
</g>
<defs>
<clipPath id="clip0_1547_2177">
<rect width="93" height="34" fill="black" transform="translate(0 0.5)"/>
</clipPath>
</defs>
</svg>
